<mxfile host="app.diagrams.net" agent="Mozilla/5.0 (Macintosh; Intel Mac OS X 10_15_7) AppleWebKit/605.1.15 (KHTML, like Gecko) Version/18.1 Safari/605.1.15" version="26.1.1">
  <diagram id="dijq7EySqOm7LpBwnqDr" name="Page-1">
    <mxGraphModel dx="838" dy="593" grid="1" gridSize="10" guides="1" tooltips="1" connect="1" arrows="1" fold="1" page="1" pageScale="1" pageWidth="850" pageHeight="1100" math="0" shadow="0">
      <root>
        <mxCell id="0" />
        <mxCell id="1" parent="0" />
        <mxCell id="zHZzTWJW-lVZE_Kibmkn-5" style="edgeStyle=orthogonalEdgeStyle;rounded=0;orthogonalLoop=1;jettySize=auto;html=1;exitX=1;exitY=0.5;exitDx=0;exitDy=0;entryX=0;entryY=0.5;entryDx=0;entryDy=0;" parent="1" source="zHZzTWJW-lVZE_Kibmkn-1" target="zHZzTWJW-lVZE_Kibmkn-2" edge="1">
          <mxGeometry relative="1" as="geometry" />
        </mxCell>
        <mxCell id="ZIEbCIN8fNmcPF7cXqB2-22" style="edgeStyle=orthogonalEdgeStyle;rounded=0;orthogonalLoop=1;jettySize=auto;html=1;exitX=0.5;exitY=1;exitDx=0;exitDy=0;entryX=0;entryY=0.5;entryDx=0;entryDy=0;" edge="1" parent="1" source="zHZzTWJW-lVZE_Kibmkn-1" target="ZIEbCIN8fNmcPF7cXqB2-20">
          <mxGeometry relative="1" as="geometry" />
        </mxCell>
        <mxCell id="zHZzTWJW-lVZE_Kibmkn-1" value="User" style="rounded=1;whiteSpace=wrap;html=1;" parent="1" vertex="1">
          <mxGeometry x="80" y="160" width="80" height="40" as="geometry" />
        </mxCell>
        <mxCell id="zHZzTWJW-lVZE_Kibmkn-6" style="edgeStyle=orthogonalEdgeStyle;rounded=0;orthogonalLoop=1;jettySize=auto;html=1;exitX=1;exitY=0.5;exitDx=0;exitDy=0;" parent="1" source="zHZzTWJW-lVZE_Kibmkn-2" target="zHZzTWJW-lVZE_Kibmkn-3" edge="1">
          <mxGeometry relative="1" as="geometry" />
        </mxCell>
        <mxCell id="zHZzTWJW-lVZE_Kibmkn-30" style="edgeStyle=orthogonalEdgeStyle;rounded=0;orthogonalLoop=1;jettySize=auto;html=1;exitX=0;exitY=0.5;exitDx=0;exitDy=0;entryX=1;entryY=0.5;entryDx=0;entryDy=0;" parent="1" source="zHZzTWJW-lVZE_Kibmkn-2" target="zHZzTWJW-lVZE_Kibmkn-1" edge="1">
          <mxGeometry relative="1" as="geometry" />
        </mxCell>
        <mxCell id="ZIEbCIN8fNmcPF7cXqB2-15" style="edgeStyle=orthogonalEdgeStyle;rounded=0;orthogonalLoop=1;jettySize=auto;html=1;exitX=0.5;exitY=1;exitDx=0;exitDy=0;entryX=0;entryY=0.5;entryDx=0;entryDy=0;" edge="1" parent="1" source="zHZzTWJW-lVZE_Kibmkn-2" target="ZIEbCIN8fNmcPF7cXqB2-9">
          <mxGeometry relative="1" as="geometry" />
        </mxCell>
        <mxCell id="zHZzTWJW-lVZE_Kibmkn-2" value="Load balancer" style="rounded=1;whiteSpace=wrap;html=1;" parent="1" vertex="1">
          <mxGeometry x="240" y="160" width="80" height="40" as="geometry" />
        </mxCell>
        <mxCell id="ZIEbCIN8fNmcPF7cXqB2-7" style="edgeStyle=orthogonalEdgeStyle;rounded=0;orthogonalLoop=1;jettySize=auto;html=1;exitX=0;exitY=0.5;exitDx=0;exitDy=0;entryX=1;entryY=0.5;entryDx=0;entryDy=0;" edge="1" parent="1" source="zHZzTWJW-lVZE_Kibmkn-3" target="zHZzTWJW-lVZE_Kibmkn-2">
          <mxGeometry relative="1" as="geometry" />
        </mxCell>
        <mxCell id="ZIEbCIN8fNmcPF7cXqB2-10" style="edgeStyle=orthogonalEdgeStyle;rounded=0;orthogonalLoop=1;jettySize=auto;html=1;exitX=1;exitY=0.5;exitDx=0;exitDy=0;entryX=0;entryY=0.5;entryDx=0;entryDy=0;" edge="1" parent="1" source="zHZzTWJW-lVZE_Kibmkn-3" target="ZIEbCIN8fNmcPF7cXqB2-2">
          <mxGeometry relative="1" as="geometry" />
        </mxCell>
        <mxCell id="zHZzTWJW-lVZE_Kibmkn-3" value="Feed server" style="rounded=1;whiteSpace=wrap;html=1;" parent="1" vertex="1">
          <mxGeometry x="400" y="160" width="80" height="40" as="geometry" />
        </mxCell>
        <mxCell id="ZIEbCIN8fNmcPF7cXqB2-11" style="edgeStyle=orthogonalEdgeStyle;rounded=0;orthogonalLoop=1;jettySize=auto;html=1;exitX=0;exitY=0.5;exitDx=0;exitDy=0;entryX=1;entryY=0.5;entryDx=0;entryDy=0;" edge="1" parent="1" source="ZIEbCIN8fNmcPF7cXqB2-2" target="zHZzTWJW-lVZE_Kibmkn-3">
          <mxGeometry relative="1" as="geometry" />
        </mxCell>
        <mxCell id="ZIEbCIN8fNmcPF7cXqB2-13" style="edgeStyle=orthogonalEdgeStyle;rounded=0;orthogonalLoop=1;jettySize=auto;html=1;exitX=1;exitY=0.5;exitDx=0;exitDy=0;entryX=0;entryY=0.5;entryDx=0;entryDy=0;" edge="1" parent="1" source="ZIEbCIN8fNmcPF7cXqB2-2" target="ZIEbCIN8fNmcPF7cXqB2-4">
          <mxGeometry relative="1" as="geometry" />
        </mxCell>
        <mxCell id="ZIEbCIN8fNmcPF7cXqB2-2" value="Post cache" style="rounded=1;whiteSpace=wrap;html=1;" vertex="1" parent="1">
          <mxGeometry x="560" y="160" width="80" height="40" as="geometry" />
        </mxCell>
        <mxCell id="ZIEbCIN8fNmcPF7cXqB2-4" value="Post DB" style="rounded=1;whiteSpace=wrap;html=1;" vertex="1" parent="1">
          <mxGeometry x="720" y="160" width="80" height="40" as="geometry" />
        </mxCell>
        <mxCell id="ZIEbCIN8fNmcPF7cXqB2-18" style="edgeStyle=orthogonalEdgeStyle;rounded=0;orthogonalLoop=1;jettySize=auto;html=1;exitX=0;exitY=0.5;exitDx=0;exitDy=0;entryX=1;entryY=0.5;entryDx=0;entryDy=0;" edge="1" parent="1" source="ZIEbCIN8fNmcPF7cXqB2-8" target="ZIEbCIN8fNmcPF7cXqB2-9">
          <mxGeometry relative="1" as="geometry" />
        </mxCell>
        <mxCell id="ZIEbCIN8fNmcPF7cXqB2-19" style="edgeStyle=orthogonalEdgeStyle;rounded=0;orthogonalLoop=1;jettySize=auto;html=1;exitX=1;exitY=0.5;exitDx=0;exitDy=0;" edge="1" parent="1" source="ZIEbCIN8fNmcPF7cXqB2-8" target="ZIEbCIN8fNmcPF7cXqB2-14">
          <mxGeometry relative="1" as="geometry" />
        </mxCell>
        <mxCell id="ZIEbCIN8fNmcPF7cXqB2-8" value="User cache" style="rounded=1;whiteSpace=wrap;html=1;" vertex="1" parent="1">
          <mxGeometry x="560" y="240" width="80" height="40" as="geometry" />
        </mxCell>
        <mxCell id="ZIEbCIN8fNmcPF7cXqB2-16" style="edgeStyle=orthogonalEdgeStyle;rounded=0;orthogonalLoop=1;jettySize=auto;html=1;exitX=0;exitY=0.5;exitDx=0;exitDy=0;" edge="1" parent="1" source="ZIEbCIN8fNmcPF7cXqB2-9" target="zHZzTWJW-lVZE_Kibmkn-2">
          <mxGeometry relative="1" as="geometry" />
        </mxCell>
        <mxCell id="ZIEbCIN8fNmcPF7cXqB2-17" style="edgeStyle=orthogonalEdgeStyle;rounded=0;orthogonalLoop=1;jettySize=auto;html=1;exitX=1;exitY=0.5;exitDx=0;exitDy=0;entryX=0;entryY=0.5;entryDx=0;entryDy=0;" edge="1" parent="1" source="ZIEbCIN8fNmcPF7cXqB2-9" target="ZIEbCIN8fNmcPF7cXqB2-8">
          <mxGeometry relative="1" as="geometry" />
        </mxCell>
        <mxCell id="ZIEbCIN8fNmcPF7cXqB2-9" value="User server" style="rounded=1;whiteSpace=wrap;html=1;" vertex="1" parent="1">
          <mxGeometry x="400" y="240" width="80" height="40" as="geometry" />
        </mxCell>
        <mxCell id="ZIEbCIN8fNmcPF7cXqB2-14" value="User DB" style="rounded=1;whiteSpace=wrap;html=1;" vertex="1" parent="1">
          <mxGeometry x="720" y="240" width="80" height="40" as="geometry" />
        </mxCell>
        <mxCell id="ZIEbCIN8fNmcPF7cXqB2-21" style="edgeStyle=orthogonalEdgeStyle;rounded=0;orthogonalLoop=1;jettySize=auto;html=1;exitX=0;exitY=0.5;exitDx=0;exitDy=0;entryX=0.5;entryY=1;entryDx=0;entryDy=0;" edge="1" parent="1" source="ZIEbCIN8fNmcPF7cXqB2-20" target="zHZzTWJW-lVZE_Kibmkn-1">
          <mxGeometry relative="1" as="geometry" />
        </mxCell>
        <mxCell id="ZIEbCIN8fNmcPF7cXqB2-20" value="Chat server" style="rounded=1;whiteSpace=wrap;html=1;" vertex="1" parent="1">
          <mxGeometry x="400" y="320" width="80" height="40" as="geometry" />
        </mxCell>
        <mxCell id="ZIEbCIN8fNmcPF7cXqB2-24" style="edgeStyle=orthogonalEdgeStyle;rounded=0;orthogonalLoop=1;jettySize=auto;html=1;exitX=0;exitY=0.5;exitDx=0;exitDy=0;entryX=0.5;entryY=0;entryDx=0;entryDy=0;" edge="1" parent="1" source="ZIEbCIN8fNmcPF7cXqB2-23" target="zHZzTWJW-lVZE_Kibmkn-1">
          <mxGeometry relative="1" as="geometry" />
        </mxCell>
        <mxCell id="ZIEbCIN8fNmcPF7cXqB2-23" value="Notification server" style="rounded=1;whiteSpace=wrap;html=1;" vertex="1" parent="1">
          <mxGeometry x="400" y="80" width="80" height="40" as="geometry" />
        </mxCell>
      </root>
    </mxGraphModel>
  </diagram>
</mxfile>
